<svg xmlns="http://www.w3.org/2000/svg" width="17" height="17" viewBox="0 0 17 17"><defs><style>.a{fill:#b4bfc4;}.b{fill:#fff;}</style></defs><g transform="translate(-1 -0.8)"><circle class="a" cx="8.5" cy="8.5" r="8.5" transform="translate(1 0.8)"/><path class="b" d="M20.61,17.748a.279.279,0,0,1,.332-.21l2.279.5a.9.9,0,1,1-.095.5l-2.066-.458-.7,3.012a6.5,6.5,0,0,1,3.746,1.239,1.327,1.327,0,0,1,2.036.16,1.3,1.3,0,0,1,.071.126,1.377,1.377,0,0,1-.62,1.842,3.214,3.214,0,0,1-1.377,3.012,6.815,6.815,0,0,1-4.069,1.227,6.812,6.812,0,0,1-4.069-1.227A3.214,3.214,0,0,1,14.7,24.468a1.3,1.3,0,0,1-.126-.071,1.377,1.377,0,0,1-.423-1.894,1.424,1.424,0,0,1,.155-.182,1.332,1.332,0,0,1,1.881.019A6.5,6.5,0,0,1,19.836,21.1Zm.756,6.438a.911.911,0,1,0,.267-.646.912.912,0,0,0-.267.646ZM22.452,26.7a.21.21,0,0,0-.224-.344,3.556,3.556,0,0,1-4.162,0,.21.21,0,0,0-.224.344A3.9,3.9,0,0,0,22.452,26.7ZM17.1,24.186a.911.911,0,1,0,.267-.646A.912.912,0,0,0,17.1,24.186Z" transform="translate(-10.712 -13.707)"/></g></svg>